<svg xmlns="http://www.w3.org/2000/svg" viewBox="0 0 512 512">

  <!-- Background -->

  <!-- Shield -->
  <path d="
      M256 70
      L390 120
      V235
      C390 335 330 405 256 450
      C182 405 122 335 122 235
      V120
      Z"
      fill="#1E293B"
      stroke="#F97316"
      stroke-width="12"/>

  <!-- Network topology -->
  <circle cx="180" cy="180" r="18" fill="#38BDF8"/>
  <circle cx="332" cy="180" r="18" fill="#38BDF8"/>
  <circle cx="256" cy="290" r="22" fill="#38BDF8"/>

  <line x1="180" y1="180" x2="256" y2="290"
        stroke="#38BDF8" stroke-width="8"/>

  <line x1="332" y1="180" x2="256" y2="290"
        stroke="#38BDF8" stroke-width="8"/>

  <line x1="180" y1="180" x2="332" y2="180"
        stroke="#38BDF8" stroke-width="8"/>

  <!-- IDS Eye -->
  <path d="
      M160 245
      Q256 165 352 245
      Q256 325 160 245 Z"
      fill="none"
      stroke="#FFFFFF"
      stroke-width="12"/>

  <circle cx="256" cy="245" r="24" fill="#FFFFFF"/>
  <circle cx="256" cy="245" r="12" fill="#0F172A"/>

  <!-- IPS Bolt -->
  <path d="
      M280 315
      L235 315
      L270 250
      L230 250
      L205 340
      L250 340
      L220 405
      Z"
      fill="#F97316"/>

</svg>